# xmcd
# 
# Track frame offsets:
#     150
#     22850
#     42952
#     58775
#     77862
#     94432
#     111475
#     131112
#     152225
#     176375
# 
# Disc length: 2544
# 
# Revision: 2
# Processed by: cddbd v1.5.2PL0 Copyright (c) Steve Scherf et al.
# Submitted via: BonkEnc v1.0.8
# 
DISCID=8509ee0a
DTITLE=黃大煒 - 讓每個人都心碎
DYEAR=1990
DGENRE=Pop
TTITLE0=讓每個人都心碎
TTITLE1=試著讓我愛妳
TTITLE2=寶貝，別走
TTITLE3=尋找妳
TTITLE4=First Time
TTITLE5=陽光之吻
TTITLE6=I Get The Feel
TTITLE7=有什麼不能說
TTITLE8=Stop！Girl
TTITLE9=House of Gold
EXTD=
EXTT0=
EXTT1=
EXTT2=
EXTT3=
EXTT4=
EXTT5=
EXTT6=
EXTT7=
EXTT8=
EXTT9=
PLAYORDER=
